# xmcd
#
# Track frame offsets:
#	150
#	5283
#	29508
#	53333
#	70279
#	97094
#	117097
#	132067
#	150553
#	167448
#	185989
#	206640
#	224780
#	237620
#	255127
#	276638
#	299576
#
# Disc length: 4205 seconds
#
# Revision: 2
# Processed by: cddbd v1.5.2PL0 Copyright (c) Steve Scherf et al.
# Submitted via: EasyCDDAExtractor 11.0.0.1
#
DISCID=02106b11
DTITLE=ΒΑΡΔΗΣ ΓΙΑΝΝΗΣ - ΠΕΣ ΜΟΥ ΤΙ ΝΟΙΩΘΕΙΣ
DYEAR=1999
DGENRE=ΛΑΪΚΑ
TTITLE0=ΕισαγωγΗ  Walla an soriak
TTITLE1=ΚΑΙΡΟΣ ΝΑ ΑΛΛΑΞΩ
TTITLE2=ΠΕΣ ΜΟΥ ΤΙ ΝΟΙΩΘΕΙΣ
TTITLE3=ΘΑ ΤΟ ΜΕΤΑΝΟΙΩΣΕΙΣ
TTITLE4=ΓΙΑ ΕΝΑ ΛΕΠΤΟ
TTITLE5=ΠΑΡΕ ΜΕ
TTITLE6=ΦΕΥΓΩ
TTITLE7=ΠΕΡΑΣΕ Η ΝΥΧΤΑ
TTITLE8=ΧΑΜΕΝΕΣ ΚΥΡΙΑΚΕΣ
TTITLE9=ΜΗΠΩΣ
TTITLE10=ΠΟΤΕ ΣΟΥ ΞΑΝΑ
TTITLE11=ΕΝΑ ΤΑΞΙΔΙ
TTITLE12=ΔΕ ΛΕΕΙ
TTITLE13=ΠΕΣ ΜΟΥ ΠΩΣ ΜΕ ΑΓΑΠΗΣΕΣ
TTITLE14=ΦΤΑΙΩ
TTITLE15=ΓΙΑ ΕΝΑ ΛΕΠΤΟ REMIX
TTITLE16=ΠΕΣ ΜΟΥ ΤΙ ΝΟΙΩΘΕΙΣ OUTRO
EXTD=
EXTT0=
EXTT1=
EXTT2=
EXTT3=
EXTT4=
EXTT5=
EXTT6=
EXTT7=
EXTT8=
EXTT9=
EXTT10=
EXTT11=
EXTT12=
EXTT13=
EXTT14=
EXTT15=
EXTT16=
PLAYORDER=
